<?xml version="1.0" encoding="UTF-8"?>
<svg id="Layer_1" data-name="Layer 1" xmlns="http://www.w3.org/2000/svg" viewBox="0 0 241.83 155.09">
  <defs>
    <style>
      .cls-1 {
        fill: #f6f5f4;
      }
    </style>
  </defs>
  <path class="cls-1" d="M220.65,117.91v12.39c-.56,0-.26.44-.81.55-8.35,4.12-35.74-1.41-36.67,4.96,11.51.54,23.89.2,33.95,2.2,1.83,3.32,1.95,8.76.82,12.95-7.19,6.03-24.07,2.22-35.31,4.13h-17.38c-1-.55-2-1.09-3.26-1.37-.34-.67-.23-1.79-1.09-1.93-11.95.33-24.97,2.89-36.4,1.1-4.53-1.81-4.63-12.39-.81-15.15,8.55-3.33,22.95-.56,35.31-1.93,8.92,0-4.9-.51-5.16-.55-1.22-.17-3.06-2-4.35-3.03-5.57-4.5-2.89,2.38-3.53-46.56.04-.97,1.34-.66,1.09-1.92-.15-4.99.33-10.62-.27-15.16-56.85-51.71-40.01-34.41-39.65-29.47.16,2.22-1.55,4.05-1.9,6.06-.4,2.29.16,5.21.27,7.98.36,8.36-1.36,2.5,1.9,12.4,1.59,4.76,3.72,11.74,6.25,17.08,8.18-3.54,6.63-11.69,8.42-15.16,1.51.95,1.74,3.2,2.17,5.24.81-.51-1.03-4.79.27-5.24,1.4.51,1.23,2.61,2.17,3.59.49-.39-.33-2.86.81-3.31,1.41.87,1.17,2.56,1.36,4.13.66,0-.12-3.79,1.09-4.13,1.12.42.7,2.4,1.36,3.31.13-1.42-.16-3.28,1.36-3.31,1.35.79.68,3.36,1.63,4.41,1.13-16.4,10.3,19.56.81,25.9-3.55,2.38-7.85,1.64-12.49.82-1.12.06-.67,1.72-1.63,1.93-2.16.24-8.41-1.51-10.59.55-.58-.44-1.49-1.85-2.18-1.93.16.02-.9,2.05-5.43.28-.47-.19-.73-.77-1.36-1.1-.63-.33-1.65-.22-2.18-.55-.7-.44-1.2-1.49-1.9-1.93-.92-.59-1.92-.48-2.44-.82-3.49-2.34.14-20.87-3.8-27.28.78-1.96-2.88-29.21-2.99-30.02.16-1.18-1.46-.53-1.09-1.93,2.33-6.04.5-13.43-.54-19.83v-2.48c1.08-3.86,2.02-7.87,2.71-12.12.76-.43,1.44-.94,1.91-1.65h1.09c.37.62,1.89.1,2.71.27,1.07.85,1.41,2.43,1.9,3.86,27.44,21.63,16.46,15.01,26.62,20.11.48.88.99-1.24,1.63-.28,1.17,1.03,2.35,2.03,3.53,3.03-.44,4.84-7.7-3.4,16.03,16.8.96.06.53-1.29,1.63-1.1,1.22,2.85,10.74,1.52,10.86,14.33,1.41,1.51,2.49,3.36,4.62,4.14.99,3.03,4.37,4.98,5.43,8.54.02.08,2.44,23.89,2.45,23.97.36-.03,17.57-1.19,17.92-1.1,1.53.39,5.16,4.37,5.71,6.06,1.21,3.77.19,8.97,1.36,13.22,19.69.83,25.36-.05,26.08,6.06ZM190.23,111.85c.1-.48-1.61-11.22-1.63-11.3-2.86.15-4.96-.49-7.88-.27-1.16,5.07-2.3,10.16-3.26,15.43,3.61-.31,11.58,1.92,12.77-3.86ZM172.31,117.63c1.52-5.43,3.02-10.89,4.34-16.53-4.67.4-9.43.72-13.85,1.38-1.04,1.49-5.36,14.17-5.44,15.98,4.74-.53,9.94-.58,14.94-.83ZM152.48,52.89c1.38.53,2.57,2.71,3.8,2.48-.57-5.94-4.7-9.74-9.78-10.19,3.27,2.72,4.69-.95,5.98,7.71ZM150.85,123.69c.9-2.07.86-28.83-.54-36.91.15,38.32-.48,36.32.54,36.91ZM150.31,85.4c.02-1.04-.12-1.91-.54-2.48.12.9-.36,2.38.54,2.48ZM149.77,81.26c-.07-.59.21-2.94-.28-2.2.07.59-.21,2.94.28,2.2ZM142.97,46c-8.24-6.24-15.2-13.79-24.18-19.28-.13-.86.59-1.08,0-1.65-7.6-5.69-14.49-12.11-22-17.9.57,4.11,3.15,6.18,4.35,9.64,2.52.8,4.95.51,6.78,1.65,2.18,1.37,2.05,4.71,3.81,6.61,4.98,2.94,29.31,20.53,31.23,20.94ZM97.07,89.81c.93.53,2.44.46,3.54.82-5.56-13-3.49-10.2-3.54-.82Z"/>
  <path class="cls-1" d="M3.27,16.73c.43,0,.98-.37,1.66-1.1h1.13c.45.03.73.04.83.04l2.04-.08c.15,0,.77.24,1.85.72.05.03.11.04.19.04s.33-.11.76-.34l7.48-.23c.2-.02.5.1.91.38.2.15.54.3,1.02.45l.64-.64c1.39,0,2.81.1,4.27.3l.11-.11c.43.58.83.87,1.21.87.35,0,.69-.3,1.02-.91.7.05,1.32.08,1.85.08l5.29.68,1.66.04c.83.2,1.56.33,2.19.38.1.5.25.78.45.83.1.08.6.15,1.51.23.28-.55.57-.83.87-.83.05,0,.3.08.76.23l1.28.04c.25,0,.68.19,1.28.57.81.5,1.32.76,1.55.76l.79-.23,3.48,1.47c2.27.48,3.54.82,3.82,1.02.33.25.52.38.57.38l.76.11c.58.43,1.01.73,1.28.91l1.59,1.25,1.7,1.06c.96.73,1.72,1.23,2.3,1.51-.15.55-.23.94-.23,1.17,0,.66.21.98.64.98.35,0,.74-.09,1.17-.26.48.58,1.15,1.27,2,2.08.58.58.84.94.79,1.1l.26,1.13.94,2.61.08,1.74.64,2.34.11,2.87.26,1.21-.19,2.87c-.05,1.46-.16,2.58-.34,3.36-.15.66-.44,1.56-.87,2.72h-.68c-.03.1-.04.19-.04.26,0,.05.14.33.42.83.02.08.04.18.04.3,0,.35-.09.76-.26,1.21-.2.5-.32.81-.34.91-.38,1.18-.74,1.78-1.1,1.78-.3,0-.62-.39-.94-1.17l-.83,1.36.26.45-.19.76.68.98c-.4.53-.94,1.52-1.62,2.98l-.94,1.21-.15.45-1.7,1.78-.26.68-1.1,1.28c-.4.48-.67.72-.79.72s-.3-.11-.53-.34h-.57l-.49-.64c-.45.5-.68.89-.68,1.17,0,.23.18.55.53.98-.6.58-1.37,1.17-2.3,1.78-.53.35-.94.72-1.25,1.1-.78-.33-1.59-.54-2.42-.64l-.15.45c.33.45.54.83.64,1.13-.48.48-1.34,1.15-2.57,2l-2.57,1.32c-.2.1-.62.45-1.25,1.06-.58-.53-1.11-.81-1.59-.83-.18.81-.4,1.32-.68,1.55-.13.08-.91.3-2.34.68-.15.02-.34.13-.57.3-.93.78-1.42,1.17-1.47,1.17h-.83c-.1,0-.45.23-1.06.68-.13.1-.68.31-1.66.64-.18.08-.4.18-.68.3-1.49.71-2.54,1.11-3.17,1.21-.68.05-1.51.23-2.49.53l-3.63,1.25-2.49.23-.94.3-2.04.26h-.83l-1.59.38-2.15.08-2.98.23-.68-.04c-.66-.03-1.16-.06-1.51-.11l-5.74.23s-.14.04-.34.11c-.08.03-.15.04-.23.04-.66,0-.98-.32-.98-.94,0-.2.08-.35.25-.45.16-.1.74-.34,1.72-.72,1.03-.38,1.76-.72,2.19-1.02.1-.68.35-1.28.76-1.81-.08-.81-.11-1.4-.11-1.78l.49-2.87v-.04c0-.28-.04-.58-.11-.91l-.15-.53c0-.08.18-.87.53-2.38.05-.23.08-.44.08-.64,0-.25-.15-.72-.45-1.4l3.1-.87-2.98-4.8.08-.15c.96-.2,1.44-.53,1.44-.98,0-.28-.18-.67-.53-1.17-.23.1-.44.15-.64.15-.38,0-.57-.42-.57-1.25l.08-.94v-5.1c0-.35-.03-.65-.08-.91-.03-.25-.04-.4-.04-.45,0-.4.21-.94.64-1.62l-.64-.45v-1.1l.6-.6c-.48-.48-.72-1.05-.72-1.7v-.98c0-1.49-.04-2.54-.11-3.17-.03-.35-.04-.64-.04-.87s.08-.5.23-.83c.3.05.57.08.79.08.33,0,.49-.14.49-.42,0-.08-.15-.26-.45-.57-.23-.33-.45-.58-.68-.76-.63-.05-.97-.34-1.02-.87l.26-2.08-.3-7.48.26-.26h.3c.28-.81.42-1.35.42-1.62,0-.35-.37-.71-1.1-1.06-.05-.55-.29-1.69-.72-3.4l-.08-1.36c-.2-.68-.3-1.36-.3-2.04-.03-.68-.16-1.89-.42-3.63-.55,0-.91-.01-1.06-.04l-.23-.04c-.13,0-.4.08-.83.23-.28.13-.79.19-1.55.19-.15-.33-.23-.6-.23-.83,0-.55.34-.98,1.02-1.28.43-.18.72-.36.87-.57ZM11.32,25.23h.91c.2.5.36,1.32.49,2.46l.19.83-.08,2.42.11,1.4c-.38.83-.57,1.3-.57,1.4s.1.5.3,1.21l-.15,2.76.08,2.04c.18.81.26,1.28.26,1.44,0,.2-.06.43-.19.68l-.98-.3c-.15.3-.23.54-.23.72,0,.45.19.73.57.83.05.03.19.05.42.08.23.03.53.1.91.23-.53.53-.93.89-1.21,1.1-1.21.91-1.81,1.64-1.81,2.19,0,.08,1.02,1.68,3.06,4.8-.23,1.08-.35,2.05-.38,2.91l-.91.42.19.38.94.34.08.38v5.4c0,3.35.06,5.14.19,5.36.02.18.04.32.04.42,0,.05-.06.47-.19,1.25-.03.25-.04.47-.04.64,0,.45.14,1.49.42,3.1.02.15.04.3.04.45,0,.23-.09.49-.26.79l-1.55-.49c-.28.4-.42.73-.42.98,0,.83.47,1.25,1.4,1.25h.42c.02.55.1,1.11.23,1.66.1.45.15,1.28.15,2.49,0,.38.1,1.31.3,2.8-.76.53-1.27,1.13-1.55,1.81l-1.1.45v.23l.11.15c.25-.1.4-.15.45-.15l2.04.08c.86,0,1.34.01,1.44.04.1.03.34.15.72.38l.53-.76c.35.05.59.08.72.08l3.78-.11c.05,0,.26.09.64.26.25-.5.49-.82.72-.94.35-.15.88-.23,1.59-.23h.38c1.41,0,2.3-.08,2.68-.23l1.02-.45,1.51-.45c2.22-.91,3.58-1.51,4.08-1.81l1.21-.34c1.36-.58,2.12-.89,2.27-.95.1,0,.39-.01.87-.04l2-1.1c.91-.2,1.4-.35,1.47-.45.02-.08.05-.23.08-.45.5-.23.84-.38,1.02-.45.88-.35,2.01-1,3.4-1.93.78-.38,1.31-.65,1.59-.83.18-.13,1.42-1.16,3.74-3.1l2.12-1.66,1.1-1.62,1.85-1.74c.18-.15.4-.49.68-1.02.18-.38,1.01-1.46,2.49-3.25.02-.02.15-.34.38-.94.1-.23.37-.76.79-1.59.3-.6.47-1.3.49-2.08.02-.45.3-1.27.83-2.46.5-1.18.72-1.91.64-2.19l.04-1.74.34-2.04c.08-.83.16-1.44.26-1.81.93-.2,1.4-.89,1.4-2.08,0-.7-.47-1.27-1.4-1.7-.05-.65-.2-1.55-.45-2.68l-.08-1.1c-.3-.91-.45-1.44-.45-1.59,0-.33.05-.74.15-1.25-.5-.45-1-1.08-1.47-1.89-.73-1.28-1.12-1.99-1.17-2.12-.03-.02-.08-.38-.15-1.06l-.42-.42c-.4,0-.69-.02-.87-.08-.25-.02-.71-.31-1.36-.87.15-.4.23-.74.23-1.02,0-.18-.11-.42-.34-.72-.38-.05-.72-.08-1.02-.08-.08,0-.42.05-1.02.15h-.08c-.15,0-.92-.57-2.3-1.7l-1.74-1.02-1.13-.91-1.17-.57-2.68-1.4-1.13-.34-.98-.34-1.93-.26-1.44-.42-3.06-.49-2.3-.49c-2.02-.35-3.09-.57-3.21-.64-.08-.05-.33-.26-.76-.64-.25-.23-.44-.34-.57-.34-.23,0-.53.1-.91.3-.28.15-.52.23-.72.23-.03,0-.45-.06-1.28-.19l-1.55-.04-4-.26-3.25.11h-2.38c-.33,0-.63-.06-.91-.19-.68-.28-1.06-.42-1.13-.42-.03,0-.23.08-.6.23-.2.08-.52.14-.94.19-.23.4-.34.67-.34.79l.11,1.36-.3,1.1c-.1.88-.24,1.59-.42,2.12l-.68-.23c-.23.38-.34.68-.34.91,0,.15.05.28.15.38l.26.3Z"/>
  <path class="cls-1" d="M75.13,90.79c.1-.43.21-.84.34-1.25.15-.55.26-.92.34-1.1.43-.88.64-1.42.64-1.62,0-.15-.13-.43-.38-.83.28-.66.53-1.89.76-3.7.05-.3.21-.68.49-1.13.08-.13.11-.25.11-.38,0-.15-.15-.48-.45-.98-.05-.1-.06-.28-.06-.53v-6.35c.1-.65.18-1.04.21-1.17.05-.2.25-.39.6-.57v-1.36c.55-.5.83-1.01.83-1.51,0-.2-.01-.42-.04-.64l.11-.08c-.23-.23-.38-.59-.45-1.1l-.38-1.59.08-.94-.04-1.55c.25-1.21.38-1.91.38-2.12,0-.15-.09-.74-.26-1.78,0,0,.11-2.24.11-2.34-.03-.25-.04-.47-.04-.64l.08-4.16c0-.05.04-.16.11-.34.02-.13.04-.23.04-.3,0-.38-.11-.97-.34-1.78-.05-.18-.08-.33-.08-.45,0-.23.21-.45.64-.68v-2.3c-.53-.25-.79-.52-.79-.79,0-.58.09-1.71.26-3.4.02-.23.04-.42.04-.57,0-.08-.38-5.83-.38-6.01,0-1.46.5-2.61,1.51-3.44-.08-.68-.26-1.21-.57-1.59l-1.17.15c-.08-.3-.11-.57-.11-.79,0-.05.15-.93.45-2.64l-.23-.45c-.18-.4-.26-1.45-.26-3.14,0-.25-.04-.76-.11-1.51l-.94-.94h-.68l-.08-.42v-.04c0-.23.06-.4.19-.53.02-.05.36-.26,1.02-.64l1.02-.76.76-.26c.53-.2,1.1-.35,1.7-.45l.38-1.02c1.06-.05,1.89-.26,2.49-.64.2.6.31,1.07.34,1.4,0,.08-.01.3-.04.68-.03.25-.05.59-.08,1.02l-.19,6.08v2.49c-.3.23-.49.4-.55.51-.06.11-.11.36-.13.74,0,.63-.04,1.22-.11,1.78l.98.19c-.08.58-.11.97-.11,1.17-.25,2.22-.54,4.03-.87,5.44l.6.6c-.03,1.26-.24,2.71-.64,4.34-.03.2-.05.81-.08,1.81l.91.23c-.2,1.69-.33,2.76-.38,3.21l.08,2.57c0,.1-.06.35-.19.76l-.83.79.38,1.93.91.11-.19.38v6.35l.26,1.44v2.08l.04,1.47c0,.4-.5.93-1.51,1.59,0,.66.06,1.03.19,1.13,0,.1.24.32.72.64.08.43.16.72.26.87.2.33.3.54.3.64l-.04.15c-.08.25-.1.77-.08,1.55l.15,7.48-.76.79.79.49v7.78c-.35.05-.55.09-.6.11l-1.36.98c-.2.1-.79.24-1.78.42-.45.28-.91.54-1.36.79-.55.33-1.1.49-1.62.49-.3,0-.73-.11-1.28-.34Z"/>
  <path class="cls-1" d="M171.29,78.58c.02-.18.38-.84,1.06-2l.42-1.1c.91-1.08,1.38-1.66,1.42-1.74s.09-.36.17-.87c.18-.03.34-.04.49-.04.2,0,.36.06.49.19.23.23.44.49.64.79l.6.98-.19,1.17.26,1.02-.11,1.13c.33,1.13.74,2,1.25,2.61l.76-.3h.04c.08,0,.16.04.26.11.13.05.36.68.72,1.89.13.43.39.81.79,1.13,1.46,1.21,2.37,1.91,2.72,2.12l4.8,1.89,1.36.83c.91.13,1.45.21,1.62.26.13.05.72.31,1.78.79,3.1.63,4.91.97,5.44,1.02l4.16.15c.5.02,1.16.04,1.96.04.38,0,.63-.03.76-.08.3-.08.47-.11.49-.11l1.1.3c.45-.18,1.59-.39,3.4-.64.2.02.62.16,1.25.42.28.02.45.04.53.04.25,0,.59-.31,1.02-.94.13-.18.29-.27.49-.27.15,0,.34.03.57.08.18.02.34.04.49.04.08,0,.98-.29,2.72-.87l.94-.08,1.44-.68c1.89-.58,3.03-.98,3.44-1.21.28-.18,1.17-.74,2.68-1.7,1.01-.88,1.61-1.41,1.81-1.59.15-.18.66-.88,1.51-2.12l.83-.68.72-1.21c.4-.5.64-.83.72-.98.05-.08.11-.36.19-.87-.08-.23.3-.96,1.13-2.19.18-.28.3-.67.38-1.17.65-.05,1.1-.14,1.32-.26.2-.13.36-.47.49-1.02l-.15-.15h-.79l.49-1.59c-.33-.38-.49-.67-.49-.87,0-.13.16-.47.49-1.02.15-.33.3-1.02.45-2.08.5-1.54.77-2.47.79-2.8.02-.65.08-1.33.15-2.04h.83v-.57l-1.25.19c-.15-.83-.68-2.51-1.59-5.02l.6-.72-.15-.38c.63.03,1.1.04,1.4.04,1.84,0,2.76-.2,2.76-.6,0-.5-1.46-.77-4.38-.79-.23.5-.52.76-.87.76-.13,0-.39-.16-.79-.49-.18-.13-1.16-.57-2.95-1.32-.68-.43-1.2-.69-1.55-.79-.78-.23-1.8-.43-3.06-.6l-.87-.3c-1.31-.45-2.02-.68-2.12-.68h-.11v-.08l-.19-.11-.04.15c-.1.18-.16.26-.19.26l-2.95-.68-.6.19c-1.08.15-1.69.23-1.81.23-.15,0-.34-.1-.57-.3-.08-.5-.37-.76-.87-.76-.23,0-.62.24-1.17.72-.18.15-.45.23-.83.23-.25,0-.62-.02-1.1-.08-.53-.05-.84-.08-.95-.08-1.69,0-2.53-.01-2.53-.04l-1.7-2.8c-.18-.3-.38-.45-.6-.45-.6,0-1.25,1.06-1.93,3.17-.05-1.89-.31-3.09-.79-3.59-.13-.13-.28-.23-.45-.3l-.53-.26c-1.89,2.72-2.9,4.08-3.02,4.08l-1.55-.53c-1.26-.15-2.14-.34-2.64-.57-.68-.35-1.03-.53-1.06-.53l-.94-.11-.45-.08h-1.02l-.98-.49c-1.54-.65-2.53-1.16-2.98-1.51-.98-.78-1.98-1.96-2.98-3.55-.55-.91-.83-1.65-.83-2.23,0-.28.04-.63.11-1.06-.5-.6-.75-1.18-.75-1.74.43-.43.65-.7.68-.83l.3-2.27c.55-1.31.88-2,.98-2.08,1.08-1.21,2.15-2.4,3.21-3.59l1.59-1.13,1.96-1.59,1.21-.57,1.32-.68,5.93-2.53c1.28-.65,2.18-1.07,2.68-1.25,1.56-.53,2.78-.91,3.66-1.13l4.84-1.28,1.36-.26,10.05-.94s3.51.26,3.51.26l1.02.26c1.06.15,2.56.48,4.5.98l.3,1.4c-.6.45-1.01.74-1.21.87-.38.28-.62.45-.72.53-.43.33-.77.55-1.02.68-.55-.3-.93-.47-1.13-.49h-1.17l-2.15-.72-1.36.08c-.08,0-.43-.4-1.06-1.21-.58-.78-1.42-1.17-2.53-1.17-.98,0-1.71.21-2.19.64-.3.25-.63.74-.98,1.47-.33-.35-.57-.53-.72-.53h-.53c-1.06,0-2.05.19-2.98.57l-3.51.64-3.14,1.02c-.96-.23-1.47-.34-1.55-.34-.28,0-.77.14-1.47.42v.91l-3.89,1.47-.38.72c-1.54.23-2.73.88-3.59,1.96-.38-.13-.71-.19-.98-.19-.48,0-.92.42-1.32,1.25-1.06.33-1.96.98-2.72,1.96-1.11,1.46-1.66,2.78-1.66,3.97,0,.58.09,1.46.26,2.64.08.55.4,1.1.98,1.62,1.41,1.28,2.38,2,2.91,2.15l1.78.49c1.28.45,2.13,1.23,2.53,2.34.02.05.18.14.45.26.25.15.52.23.79.23.08,0,.34-.09.79-.26.08-.02.18-.04.3-.04.15,0,.33.01.53.04.02-.45.13-.82.3-1.1.4.15.64.23.72.23l1.78-.23,2.87.6.94-.11c.15-.02.28-.04.38-.04.53,0,1.44.16,2.72.49l.15,1.06c.43.1.77.15,1.02.15.1,0,.28-.01.53-.04-.25-.28-.38-.5-.38-.68,0-.3.23-.45.68-.45l1.28.08h8.65c.18.18.27.34.27.49,0,.25-.08.54-.23.87.38.4.65.6.83.6.25,0,.59-.31,1.02-.94.33.13.59.19.79.19.08,0,.72-.26,1.93-.79.45.13.72.2.79.23,1.64.2,2.7.43,3.17.68l1.4.72,4.69,1.51c.08.03.31.19.72.49.38.25.68.44.91.57,1.11.63,1.78,1.1,2,1.4.13.13.28.43.45.91-.23.4-.34.73-.34.98,0,.1.01.24.04.42l1.21.11c.68,1.16,1,2.37.94,3.63.38,1.69.57,2.75.57,3.17v3.55c0,.4-.2.97-.6,1.7-.05.08-.08.16-.08.26,0,.2.08.55.23,1.06-.35.4-.54.69-.57.87l-.08.91c-.71,1.61-1.2,2.57-1.47,2.87l-.04,1.06-.98,1.44-.08.19c-.05.18-.08.29-.08.34,0,.23.06.49.19.79-.6.76-.98,1.27-1.13,1.55-.48.71-1.08,1.47-1.81,2.3l-1.28,1.89-.87.75-1.51,1.59c-.88.88-1.47,1.51-1.78,1.89-.2.25-.39.38-.57.38l-.72-.34.34-.49-1.96,1.25.26,1.02c-1.31.88-2.97,1.8-4.99,2.76-1.84.88-3.02,1.36-3.55,1.44l-2.23.26c-2.22.45-3.77.83-4.65,1.13l-2.3.34-1.02.19h-1.32l-1.55.11c-.86-.25-1.35-.39-1.47-.42-.28-.03-.72-.03-1.32,0-.58.02-1.1-.14-1.55-.49-.55.6-1.16.91-1.81.91-.1,0-.5-.19-1.21-.57-.15-.1-.35-.15-.6-.15l-2.49.04c-.18,0-.44-.01-.79-.04-.35-.88-.92-1.32-1.7-1.32-.38,0-.71.28-.98.83-.45-.23-.98-.47-1.59-.72-.55-.23-1.16-.34-1.81-.34-.81-.38-1.35-.6-1.62-.68-.55-.13-1.06-.25-1.51-.38v-.98c-.73-.18-1.12-.34-1.17-.49-.13-.02-.29-.39-.49-1.1l-.64.15-.11,1.1c-.23-.02-1.15-.3-2.76-.83l-4.53-3.67-.11-.04c-.03-.38-.08-.63-.17-.76-.09-.13-.37-.42-.85-.87-.13-.1-.64-.76-1.55-1.96-.53-.78-1.02-1.39-1.47-1.81Z"/>
  <g>
    <path class="cls-1" d="M.28,110.9c-.12-.07-.18-.16-.18-.25,0-.04.05-.24.15-.61.03-.22.13-.62.3-1.2l.52-.04c0-.1-.07-.25-.17-.47-.02-.05-.04-.11-.04-.18,0-.1.1-.42.3-.98.06-.33.17-.64.3-.91.1-.16.23-.38.4-.67.11.02.19.03.22.05.12.04.19.06.21.06.06,0,.14-.04.24-.13.11-.02.17-.04.21-.07.03-.03.06-.1.08-.19l-.29-.04-.12-.44c0-.08.12-.24.36-.49.06-.06.12-.14.19-.24.1-.18.18-.29.22-.33.14-.14.23-.28.29-.44l.08-.09c.15-.21.26-.35.35-.41.05-.04.21-.15.5-.34l.04.04.34-.17.02-.28,1.56-1.25c.06-.05.18-.12.36-.22l.33-.22.3-.08c.32-.22.49-.33.53-.33.07,0,.19.04.35.12l.17-.45.5.1.04-.23c.27-.08.44-.14.53-.17.29-.11.58-.18.87-.21l.36-.11c.28-.06.44-.09.47-.11.07-.03.17-.11.29-.22.11,0,.21.01.29.01.1,0,.3-.05.61-.16.12-.04.25-.06.4-.06.12,0,.24.02.35.05.09.02.15.03.17.02l1.61-.05c.31.02.59.17.85.45.18.19.29.29.33.29.15,0,.28-.17.41-.51.26.17.48.26.65.26.06,0,.11,0,.17-.01l.33-.07.39.13c1.07.27,1.75.48,2.06.62v.36h-.01c-.13.13-.21.21-.24.25-.3.32-.5.47-.59.47-.08,0-.21-.05-.4-.16-.46-.19-.99-.39-1.59-.61l-.16-.4c-.16.03-.27.06-.32.07-.13.04-.21.06-.23.06-.03,0-.3-.09-.79-.26-.15-.06-.24-.11-.28-.17-.04-.06-.08-.11-.11-.17-.27.1-.44.16-.51.16h-1.66l-.3-.04c-.36.06-.64.13-.84.21l-.74.08c-.32.07-.56.11-.74.15-.1.02-.25.09-.47.21l-.61.28-.44.3c-.88.36-1.48.75-1.78,1.16-.2.06-.44.17-.72.34,0,.1-.02.19-.05.28-.16.08-.38.25-.64.52l-.29.27c-.24.33-.4.52-.47.56-.07.05-.14.07-.21.07-.03,0-.08,0-.15-.01.05.09.07.15.07.17s-.2.36-.59,1.01c-.31.32-.49.52-.53.59-.02.05-.53,1.25-.53,1.25l-.11.35c-.23.4-.37.69-.42.88-.03.13-.08.37-.16.73-.12.48-.19.74-.21.79-.02.11-.16.19-.4.24.02.21.12.38.28.52-.08.21-.12.35-.12.41,0,.18.03.4.1.67,0,.02.01.05.01.05,0,.07-.04.13-.11.16l-.96.36c-.07.02-.11.07-.11.13,0,.03.02.08.06.13.12.19.2.32.23.41.06.17.11.26.12.27.18.15.36.3.55.45l.21.56c.06.12.09.27.11.44h-.07l.07.41.17.05c.09.15.13.28.13.38h.04c.02.16.04.27.05.32.04.25.08.4.11.46l.22.44c.23.59.34.94.34,1.04,0,.08-.08.12-.24.12l.12.3c.16,0,.29,0,.38.04.08.03.16.07.23.12.16.19.32.38.46.57l.36.33.28.35c.32.18.55.32.67.41,0,.19.07.34.19.42.15.11.35.21.58.29l.55.33.41.19.38.19.4.16.28.21c.08.04.16.11.24.21.11-.11.22-.17.33-.17.02,0,.49.13,1.41.38,1,0,1.53.01,1.58.01s.12.02.19.07c.14.07.25.12.35.13.11-.07.18-.12.21-.16.06-.06.11-.08.15-.08h.15s.09.02.09.02l.98-.13c.15,0,.52-.09,1.09-.24.3.09.48.13.53.13.12,0,.32-.09.61-.28l.57-.13c.35-.11.58-.2.69-.27l.28.06c.11.02.45-.07,1.03-.27.67-.23,1.02-.35,1.06-.36.02-.02.09-.09.19-.23l.46-.23c.25-.15.49-.22.7-.22.05,0,.15.02.29.07,0-.21.04-.34.11-.39.04-.04.18-.11.41-.21.26-.15.4-.23.44-.23.06,0,.14.04.25.11-.03.43-.12.76-.25,1-.07.12-.13.28-.17.47-.02.07-.07.13-.15.18-.06.04-.4.11-1.02.22-.28.12-.47.19-.57.21-.06.02-.28.07-.65.16l-.53.11-.57.16-.51.07c-.5.15-.79.23-.87.23-.09,0-.21,0-.38-.01-.11,0-.28,0-.5-.01v.07c0,.15-.1.23-.29.23-.03,0-.07,0-.1-.01-.15-.02-.24-.02-.24-.02,0,0-.05,0-.13.02l-1.49.34c-.32.06-.68.11-1.09.12l-.97.05c-.07.11-.17.17-.3.18-.37.02-.69.02-.96.02-.17,0-.44-.07-.81-.22-.08-.03-.18-.05-.3-.05-.11,0-.21.07-.33.22l-.59-.02c-.15-.23-.28-.34-.41-.34h-.04c-.17,0-.32,0-.45.01-.13.02-.2.02-.22.02-.31,0-.69-.13-1.15-.38-.35-.19-.74-.38-1.16-.56-.67-.42-1.12-.68-1.33-.79l-.08-.22h.27v-.17c0-.27-.1-.41-.3-.44-.12.14-.22.21-.3.21-.04,0-.18-.1-.42-.3l-.82-.57-.25-.35-.12-.13-.42-.63c-.63-.86-1.05-1.82-1.26-2.89l.24-.15v-.23l-.27-.18c0-.19-.04-.36-.11-.52l-.07-.26c-.09-.14-.14-.23-.15-.27,0-.03-.01-.19-.01-.46l-.05-.53.07-.24c-.08-.23-.12-.39-.12-.46,0-.19.06-.36.18-.53.02-.02.05-.17.1-.45Z"/>
    <path class="cls-1" d="M24.62,115.25c0-.53.03-.92.1-1.16.06-.21.18-.53.34-.96.33-.61.52-.96.57-1.04.05-.07.23-.21.56-.42,0,0,.07-.13.18-.36.07-.13.13-.21.18-.23.09-.07.4-.24.93-.5.17-.08.36-.23.58-.46.03-.03.52-.22,1.46-.57.49-.19,1.19-.28,2.12-.28.19,0,.43.03.73.1l.05.25c.11.05.21.11.29.17.12-.04.22-.15.29-.32.44.1.83.26,1.16.49.25.15.39.25.42.29.02.02.1.17.24.42.16.25.44.38.82.39.19.32.32.56.37.72.05.15.1.41.15.78.05.37.09.66.11.87h-.19v.15l-.24.28c.03.14.15.27.34.39-.02.36-.05.6-.07.73-.02.06-.08.2-.18.42-.3.7-.51,1.15-.63,1.35-.43.52-.82.83-1.18.95l-.65.33-.62.29c-.32.18-.51.27-.57.29-.06.01-.45.04-1.18.08l-.85.18h-.86l-.39.05c-.71-.12-1.16-.19-1.33-.19-.11-.13-.2-.21-.25-.23-.02,0-.17-.04-.47-.09-.16-.03-.48-.21-.96-.52-.07-.04-.22-.12-.44-.24-.05-.15-.08-.25-.1-.3-.03-.09-.06-.15-.1-.18,0,0-.09-.06-.25-.17,0,0-.04-.04-.09-.11-.18-.28-.27-.57-.27-.85,0-.14.08-.27.25-.39-.07-.13-.2-.23-.38-.31v-.05ZM25.95,115.01v.12l.11.11c.08-.07.16-.11.24-.12.06.28.12.49.17.63.04.09.25.44.63,1.06,0,.02.01.04.01.07,0,.07-.04.19-.12.35.03.11.14.17.33.18.08-.08.15-.12.21-.12.05,0,.4.17,1.07.51.28.14.57.21.86.21h.72l.36.09c.15.04.29.06.4.06.19,0,.4-.03.63-.08.15-.04.38-.09.67-.15.08-.02.36-.2.82-.52.32-.11.49-.18.53-.22.06-.06.21-.3.46-.72l.3-.61c.2-.19.32-.31.35-.36.03-.06.05-.13.05-.23-.13-.19-.19-.32-.18-.39h0s.05-.25.05-.25c.02-.37.06-.67.15-.91-.06-.15-.14-.4-.23-.73l-.19-.63c-.02-.08-.03-.25-.04-.5l-.05-.05h-.29c-.09-.17-.27-.42-.55-.76-.16-.2-.25-.31-.27-.33-.02-.02-.1-.06-.24-.12-.11-.05-.32-.13-.61-.24-.08-.28-.21-.42-.39-.42-.05,0-.17.04-.38.12-.25-.07-.39-.1-.42-.1-.42,0-.7,0-.82.02-.14,0-.35.1-.63.28l-.25-.18c-.12.16-.21.26-.28.29l-.52.27-.08.1-1.56,1.31c-.02.23-.04.37-.07.42l-.24.42c-.08.23-.18.42-.3.57,0,.07.01.12.01.17,0,.19-.14.34-.42.45,0,.02.03.12.1.28.22.15.33.25.33.3,0,.09-.13.21-.4.35Z"/>
    <path class="cls-1" d="M39.1,110.46c.06-.28.27-.5.62-.65.37-.3.65-.45.82-.45s.3.05.35.15c.02.02.03.26.04.7,0,.11.09.33.28.66.32-.41.51-.61.57-.61l.42-.27c.32-.27.53-.4.62-.4.1,0,.21.09.32.27.44-.32.89-.49,1.32-.49.09,0,.17.01.23.04l.24.07c.32-.11.51-.17.57-.17.09,0,.32.04.68.13.22.05.42.08.61.1.11.14.19.21.24.22l.28.05c.21.03.46.26.74.68.17.27.26.86.27,1.77-.19,0-.39.04-.59.11-.2.07-.3.14-.3.21,0,0,.27.16.81.45.06.03.1.11.1.24,0,.14-.08.38-.23.74,0,.02-.01.04-.01.07,0,.1.09.23.26.39-.02.17-.04.31-.04.44,0,.08.06.29.18.62l.02.67.04.58-.04.51c0,.08.04.23.12.45-.22.16-.37.27-.46.32-.04.02-.22.1-.55.23-.07.03-.24.15-.53.34-.23-.23-.34-.43-.34-.59,0-.06.07-.37.22-.95,0-.04.02-.13.02-.28,0-.07.01-.13.01-.18l.24-.09c.4-.06.61-.11.62-.15l-.13-.09c-.19-.12-.5-.23-.91-.32.05-.35.11-.56.18-.63l.36-.34c.19-.19.29-.36.29-.51,0-.03-.27-.15-.8-.35l.04-.44-.06-.64s.01-.04.04-.1c.03-.08.06-.2.1-.35-.13-.15-.19-.24-.19-.29v-.61c.01-.08-.05-.19-.18-.33-.13-.14-.19-.27-.19-.41l-.06-.07c-.19-.06-.3-.1-.33-.13l-.34-.58c-.06-.11-.14-.16-.22-.16-.14,0-.3.08-.5.24-.3.26-.57.39-.8.39-.04,0-.21-.03-.5-.1l-.23.23v.06c-.17-.4-.34-.61-.51-.61,0,0-.05.02-.13.05-.11.06-.24.1-.38.13-.17.05-.39.16-.65.33-.4.22-.63.38-.69.5-.13.19-.19.38-.19.57l.02.82c0,.15-.03.24-.1.28l-.55.4c-.06.04-.09.08-.09.12,0,.08.07.16.22.24.32.17.51.28.56.33.04.05.06.13.06.23,0,.02,0,.11-.02.24l.02.9s-.07.17-.22.36c-.02.02-.02.07-.02.13,0,.15.08.3.25.46l-.04.04c.02.19.02.32.02.39.03.48.1.84.19,1.1-.08.17-.16.27-.24.3-.03.02-.17.04-.4.07-.04,0-.1.02-.17.06-.1.04-.16.07-.19.07-.06,0-.12.07-.18.17-.07.1-.16.15-.28.15-.05,0-.12-.06-.22-.17-.06-.07-.1-.13-.1-.21,0-.06,0-.14.02-.22.06-.24.08-.38.08-.42v-.92c.09-.23.12-.37.12-.41,0-.08-.02-.18-.05-.29-.04-.16-.06-.27-.06-.33,0-.03,0-.11.02-.24,0-.08.01-.15.01-.21,0-.11,0-.26-.01-.46,0-.1-.01-.19-.01-.29,0-.1.03-.24.08-.4l.34-.16c-.02-.07-.04-.13-.08-.17-.05-.02-.18-.04-.39-.06,0-.15-.01-.28-.01-.38,0-.07.02-.19.05-.36,0-.04.01-.09.01-.15,0-.19-.04-.53-.13-1.03l.28-.16c-.15-.23-.24-.36-.25-.4-.02-.02-.03-.12-.05-.28,0-.13-.11-.31-.29-.53Z"/>
    <path class="cls-1" d="M57.81,114.05l-.32.23c-.32-.09-.57-.13-.75-.13-.22,0-.48.02-.79.05-.09-.19-.21-.33-.36-.42l-.23.3c-.17.02-.37.07-.61.13-.1.02-.18.04-.25.04-.02,0-.04,0-.07-.01l-.46-.1s-.02.01-.04.04l-.23-.24c-.13.06-.24.09-.33.09-.03,0-.13-.04-.3-.12-.04-.02-.11-.04-.22-.09-.62-.22-.93-.57-.93-1.07,0-.43.17-.85.5-1.27.09-.12.32-.34.68-.64l.24-.23.57-.34c.58-.36,1.01-.59,1.29-.7.63-.26,1.14-.39,1.52-.39.06,0,.43.09,1.09.26l.63-.11c.4.02.63.05.69.08.16.08.24.16.24.24s-.04.16-.12.24c-.02.02-.22.14-.59.36-.39.24-.61.35-.65.35-.53,0-.91-.04-1.15-.11-.08-.17-.17-.31-.25-.41h-.07l-.23.24c-.14,0-.24.01-.3.01-.07,0-.14,0-.21-.01-.09,0-.15-.01-.19-.01-.02,0-.12.02-.32.07-.06-.05-.19-.07-.36-.07-.16.12-.43.28-.8.49-.19.11-.36.26-.5.47-.14.21-.21.41-.21.59,0,.09.08.2.23.34.02.02.17.09.42.19.15.07.31.16.47.27,0,.06-.01.12-.01.16,0,.17.07.25.21.25.13,0,.27-.11.44-.32.19.02.34.04.47.04.05,0,.28-.04.69-.11l.39.04c.36-.05.55-.07.58-.07.06,0,.26.06.62.17l.44-.05.44.3c.47.22.79.42.96.62.13.16.2.29.22.39l.09.4c.11.49.17.76.17.84,0,.05-.02.19-.05.42-.04.52-.19.78-.45.78-.08,0-.17-.01-.28-.04-.1.4-.18.64-.24.69-.36.42-.6.7-.7.85-.41.06-.75.18-1.02.38-.12.1-.19.15-.22.16-.02,0-.13.02-.3.04l-.98.27c-.32-.06-.5-.08-.53-.08-.05,0-.29.06-.73.19l-.29-.04c-.39-.02-.68-.06-.87-.1-.42-.11-.64-.18-.67-.23l-.39-.25c-.48-.29-.77-.5-.89-.63-.24-.28-.36-.56-.36-.82,0-.06.09-.15.27-.29l.33-.3c.31-.23.49-.34.53-.34.03,0,.06.01.08.04.19.18.28.37.28.58l-.05.39h0c0,.08.01.14.06.18.03.03.18.12.44.27.06.03.13.09.22.16.2.18.32.27.32.27l.45.18.41.22h.46l.29.06c.3-.09.57-.14.8-.15.23,0,.39-.04.5-.1l.47-.23c.26-.09.41-.15.45-.18.15-.12.36-.39.61-.8.26-.43.39-.92.39-1.47,0-.12-.04-.23-.11-.34-.32-.48-.52-.8-.61-.98Z"/>
    <path class="cls-1" d="M62.32,110.09c.06-.32.17-.47.33-.47l.63.04c.45-.06.71-.1.78-.11v-.29c0-.76-.02-1.38-.05-1.87-.02-.21-.06-.4-.15-.57l-.12-.25c-.03-.07-.05-.13-.05-.21,0-.12.1-.27.29-.44.3-.27.68-.46,1.14-.55.1-.22.22-.33.34-.33.05,0,.09.02.12.06.11.12.17.28.17.47,0,0-.04.65-.11,1.92-.1.33-.16.53-.18.58-.03.11-.13.23-.28.35,0,.16.02.32.07.47h.28l-.07.62c.2.02.62.11,1.26.29.04,0,.18.01.41.01.15,0,.38-.05.72-.15l.8-.07c.41-.16.65-.24.73-.24.1,0,.23.01.39.04-.02.23-.04.39-.07.49-.03.12-.29.33-.76.62-.11.06-.19.13-.24.18-.12.15-.19.22-.19.22-.04.03-.14.05-.29.05-.12,0-.21-.02-.27-.05l-.5-.27-.3-.07-.36-.27-.62.47-.53-.07s-.12.04-.24.12c.06.39.1.72.1.98,0,.13,0,.32-.01.57-.3.05-.45.17-.45.36,0,.07.02.16.05.27.18.02.33.04.45.07l-.02,1.52c-.12-.03-.22-.05-.3-.05-.15,0-.22.06-.22.18,0,.1.04.21.11.35.11-.07.21-.11.29-.11.12,0,.18.08.18.23l-.04.51c.02.33.03.57.04.72.02.15.06.31.15.46l.15.25s.02.08.02.15c0,.07,0,.17-.02.28.25.15.53.22.84.22.26,0,.52-.06.78-.19.21-.11.32-.18.34-.19l.67-.61c.33-.27.53-.41.61-.41s.17.04.3.11c-.02.15-.04.26-.05.32-.06.42-.11.66-.17.73-.06.07-.3.17-.74.31-.33.17-.83.37-1.5.59l-.41.13c-.28.15-.43.23-.47.23-.07,0-.15-.07-.24-.22l-.22-.06-.13.3c-.11.02-.21.02-.29.02-.21,0-.46-.14-.75-.41-.13-.13-.23-.26-.32-.4,0,0-.04-.11-.1-.31-.09-.27-.13-.42-.13-.46,0-.07,0-.19.02-.35.02-.13.02-.4.02-.81,0-.27.08-.47.22-.61-.05-.15-.07-.34-.07-.56-.04-.37-.07-1.08-.07-2.12.19-.12.29-.24.29-.35,0-.07,0-.14-.02-.23l-.35-.09-.02-.11h0c0-.05.01-.14.04-.27.05-.21.07-.57.07-1.09-.33-.07-.57-.11-.73-.11-.05,0-.26.02-.63.07l-.25.02c-.23.07-.35.11-.36.11-.11,0-.17-.05-.17-.16,0-.16.17-.33.51-.52Z"/>
    <path class="cls-1" d="M71.44,110.35c.05-.15.13-.28.23-.4.08-.09.29-.21.63-.38.35-.22.55-.33.59-.33.15,0,.25.05.33.16l.05.21.1.38c-.02.09-.04.16-.04.21,0,.07.04.16.13.25.16-.05.38-.15.65-.3l.51-.17.51-.34.33-.13c.18-.09.27-.13.29-.13l.27.05h.04s.32-.09.82-.26c.06-.02.18-.02.36-.02.14,0,.23.02.29.06,0,0,.09.09.25.24.1.02.15.04.17.04s.13-.06.35-.17c.02,0,.04-.01.06-.01.1,0,.23.06.36.18.13.11.22.29.28.52-.12.12-.36.31-.73.57-.18.23-.31.34-.39.34-.13,0-.3-.13-.51-.39-.15.02-.27.02-.36.02-.11,0-.28-.05-.52-.15-.19-.07-.39-.12-.59-.15-.08.16-.21.25-.4.27-.23.02-.37.03-.42.05l-.49.15s-.1-.03-.19-.08c-.16.15-.44.36-.85.65-.26.19-.38.51-.38.98v.42c0,.15.01.27.01.36,0,.09-.09.22-.28.4.14.15.21.27.21.38,0,.06,0,.13-.02.21l.18.05.04.36.06,2.17-.05.13-.32.17c-.45.09-.68.15-.68.18s.25.08.76.16l.21-.05c.08.27.12.45.12.55,0,.19-.09.33-.28.44-.07.04-.28.08-.62.12-.06.02-.24.12-.52.3-.05.03-.1.05-.17.05-.19,0-.29-.09-.29-.25,0-.05.06-.28.18-.69.02-.05.02-.1.02-.15,0-.02-.02-.2-.06-.55,0-.02.02-.09.05-.21l.29-.08c0-.07.01-.14.01-.19,0-.11-.06-.23-.18-.38v-.3c0-.07-.02-.26-.07-.57.02-.27.04-.49.04-.68.3-.11.45-.23.45-.39,0-.05-.01-.11-.04-.19-.1.02-.18.04-.24.04-.06,0-.13-.03-.21-.1v-1.21c0-.06,0-.14-.01-.22v-.19c0-.13.05-.3.16-.52-.11-.09-.17-.17-.18-.23,0-.02-.02-.29-.05-.79,0-.1-.1-.25-.27-.46Z"/>
    <path class="cls-1" d="M81.93,113.46l-.36.21c.05.21.08.35.1.41.02.08.02.13.02.16,0,.05-.02.15-.06.31-.04.19-.06.5-.06.95,0,.07.05.21.16.42l-.04.4.04.47c.02.42.17.72.44.88.1.07.51.2,1.22.41.28.08.5.12.64.12.42,0,.69-.06.8-.17l.5-.47s.13-.1.3-.17c.14.11.26.17.36.17.05,0,.1,0,.16-.01.08-.17.15-.28.21-.34.02-.02.13-.09.34-.21.03-.03.18-.25.45-.66.24-.2.37-.31.38-.33.03-.05.1-.21.19-.49.07-.21.11-.38.12-.51v-.02c-.02-.17-.02-.29-.02-.35v-.02s.03-.19.1-.42l-.19-.11-.07-.17v-1.76c0-.19-.04-.51-.12-.97v-.06c0-.11.08-.23.24-.39-.02-.1-.06-.15-.1-.17l-.16-.06s-.04-.13-.04-.34c0-.02,0-.08.02-.16.03-.15.06-.29.07-.44.14.05.23.07.28.07.08,0,.32-.09.72-.26.1-.05.27-.1.49-.16.14.4.2.67.19.79l-.09,1.37v.8c-.06.61-.12.99-.16,1.14l-.24-.08c-.08.18-.12.31-.12.39,0,.05,0,.11.01.18l.39-.04c.02.15.04.25.04.33v.31s-.01.69-.01.69c0,.29-.04.59-.11.9.11.12.18.21.21.25.02.07.03.27.05.61,0,.21.06.38.15.51.06.07.17.15.34.23-.05.12-.11.21-.19.28-.04.02-.26.12-.65.28-.37.22-.59.33-.67.33-.08,0-.16-.04-.23-.13-.11-.14-.16-.31-.16-.53,0-.1,0-.22.01-.36-.15-.03-.29-.05-.4-.05-.06,0-.11.01-.17.04-.02,0-.12.11-.32.29l-.24.11-.4.23-.38.13c-.51.25-1.05.39-1.62.41-.28.08-.45.12-.51.12-.05,0-.21-.05-.47-.16-.02,0-.05-.01-.07-.01-.07,0-.22.06-.44.17l-.35-.42h-.02s-.19.04-.51.15c-.06.02-.11.02-.17.02-.11,0-.36-.1-.74-.31-.17-.1-.32-.25-.44-.45-.17-.31-.26-.59-.26-.84,0-.08.06-.19.17-.34l-.27-.12v-1.38c.16-.16.24-.3.24-.4,0-.03-.06-.17-.18-.4v-.84l-.04-.59c0-.1.08-.21.21-.34v-.17l-.3.1c.05-.46.07-.8.07-1.01,0-.13,0-.25-.01-.36l-.02-.27c0-.23-.02-.36-.05-.41l-.13-.34c.02-.08.14-.16.36-.23.15-.05.93-.33.93-.33.15-.11.25-.16.3-.16.09,0,.16.03.22.08.03.04.09.2.18.47,0,.02-.03.11-.1.28-.06.19-.1.5-.1.95,0,.08.02.26.07.55-.14.47-.21.75-.21.85,0,.24.09.56.28.96Z"/>
    <path class="cls-1" d="M92.53,113.63c.11-.18.29-.54.55-1.08.16-.34.27-.52.34-.53.15-.12.29-.25.44-.38l.28-.32.4-.34.53-.51.3-.18.28-.21.27-.11.35-.27.64-.23c.4-.14.64-.21.74-.23.19-.02.36-.05.51-.07.16.16.28.25.35.25,0,0,.21-.06.61-.17.03,0,.06-.01.08-.01,0,0,.19.04.53.13.04,0,.11.02.21.02.15,0,.25.02.32.04.38-.11.59-.17.63-.17.16,0,.31.05.45.16-.04.2-.1.34-.17.4-.07.07-.21.14-.4.19l-.07.33c-.26.12-.43.22-.51.29-.1.07-.18.11-.22.12l-.18-.02s-.5.02-.5.02l-.35-.05-.29-.02c-.27-.09-.51-.14-.69-.16-.06,0-.15,0-.27-.01-.15-.02-.27-.02-.36-.02-.07,0-.36.05-.9.15-.28.03-.47.07-.56.11-.09.06-.26.21-.52.47-.07.07-.21.13-.42.16-.02.19-.07.31-.13.36-.08.07-.23.11-.44.15.02.09.02.17.02.24,0,.03-.11.21-.33.52-.06.1-.1.59-.1,1.48,0,.19.1.55.3,1.08-.13.23-.2.39-.21.5.05.04.19.09.41.15.36.45.58.78.68,1l.29.04c.12.16.2.26.24.29l.46.3.33.24c.31.12.5.19.57.21.05.02.23.03.56.05l.45.1.42.02.32.04c.16-.02.43-.11.8-.28l.22.06c.1-.07.17-.11.21-.13.06-.03.22-.14.46-.33.21-.02.4-.11.56-.25.12-.13.26-.24.41-.33.06-.04.13-.1.21-.18.19-.23.34-.34.42-.34.06,0,.13.04.19.12-.08.33-.12.61-.12.84-.16.15-.3.32-.4.49-.18.06-.42.19-.73.4-.13.02-.25.07-.35.15-.15.11-.28.16-.39.16l-.42-.02c-.43.09-.68.15-.76.17-.02,0-.13.08-.33.22-.04.02-.08.04-.11.04h-1.23s-.17,0-.35.02c-.19-.13-.38-.2-.55-.22-.23-.02-.55-.1-.98-.22l-.29-.04-.34-.11c-.22-.05-.35-.08-.41-.1-.05-.02-.12-.07-.19-.14-.42-.41-.63-.65-.63-.73,0-.06.01-.14.04-.23v-.04s-.42.07-.42.07l-.02-.02c-.15-.3-.25-.49-.32-.57-.13-.19-.2-.33-.21-.45,0-.05-.02-.19-.05-.44v-.04l.06-.34c-.23-.16-.34-.27-.34-.34,0-.02.19-.15.57-.36.21-.12.32-.3.32-.55s-.26-.38-.78-.45Z"/>
    <path class="cls-1" d="M103.91,110.09c.06-.32.17-.47.33-.47l.63.04c.45-.06.71-.1.78-.11v-.29c0-.76-.02-1.38-.05-1.87-.02-.21-.06-.4-.15-.57l-.12-.25c-.03-.07-.05-.13-.05-.21,0-.12.1-.27.29-.44.3-.27.68-.46,1.14-.55.1-.22.22-.33.34-.33.05,0,.09.02.12.06.11.12.17.28.17.47,0,0-.04.65-.11,1.92-.1.33-.16.53-.18.58-.03.11-.13.23-.28.35,0,.16.02.32.07.47h.28l-.07.62c.2.02.62.11,1.26.29.04,0,.18.01.41.01.15,0,.38-.05.72-.15l.8-.07c.41-.16.65-.24.73-.24.1,0,.23.01.39.04-.02.23-.04.39-.07.49-.03.12-.29.33-.76.62-.11.06-.19.13-.24.18-.12.15-.19.22-.19.22-.04.03-.14.05-.29.05-.12,0-.21-.02-.27-.05l-.5-.27-.3-.07-.36-.27-.62.47-.53-.07s-.12.04-.24.12c.06.39.1.72.1.98,0,.13,0,.32-.01.57-.3.05-.45.17-.45.36,0,.07.02.16.05.27.18.02.33.04.45.07l-.02,1.52c-.12-.03-.22-.05-.3-.05-.15,0-.22.06-.22.18,0,.1.04.21.11.35.11-.07.21-.11.29-.11.12,0,.18.08.18.23l-.04.51c.02.33.03.57.04.72.02.15.06.31.15.46l.15.25s.02.08.02.15c0,.07,0,.17-.02.28.25.15.53.22.84.22.26,0,.52-.06.78-.19.21-.11.32-.18.34-.19l.67-.61c.33-.27.53-.41.61-.41s.17.04.3.11c-.02.15-.04.26-.05.32-.06.42-.11.66-.17.73-.06.07-.3.17-.74.31-.33.17-.83.37-1.5.59l-.41.13c-.28.15-.43.23-.47.23-.07,0-.15-.07-.24-.22l-.22-.06-.13.3c-.11.02-.21.02-.29.02-.21,0-.46-.14-.75-.41-.13-.13-.23-.26-.32-.4,0,0-.04-.11-.1-.31-.09-.27-.13-.42-.13-.46,0-.07,0-.19.02-.35.02-.13.02-.4.02-.81,0-.27.08-.47.22-.61-.05-.15-.07-.34-.07-.56-.04-.37-.07-1.08-.07-2.12.19-.12.29-.24.29-.35,0-.07,0-.14-.02-.23l-.35-.09-.02-.11h0c0-.05.01-.14.04-.27.05-.21.07-.57.07-1.09-.33-.07-.57-.11-.73-.11-.05,0-.26.02-.63.07l-.26.02c-.23.07-.35.11-.36.11-.11,0-.17-.05-.17-.16,0-.16.17-.33.51-.52Z"/>
    <path class="cls-1" d="M113.03,110.34c0-.11.12-.27.36-.46.53-.41.99-.68,1.38-.81l.36.38c-.08.2-.15.49-.19.85-.05.3-.07.48-.07.55v.45l-.21.29c0,.2.09.4.27.58-.05.09-.07.14-.07.16l.02.59v.13c-.02.06-.02.15-.02.28l-.06,2.32c0,.12.06.4.16.84l.02.51c.05.24.07.38.07.42,0,.17-.07.32-.22.46-.04.04-.19.15-.46.32-.4.31-.63.49-.69.51-.08.03-.15.05-.22.05-.1,0-.19-.05-.29-.15.03-.2.05-.33.06-.4,0-.1.05-.27.13-.53v-.59s.1-1.19.1-1.19v-.22c0-.13.06-.19.18-.19.03,0,.07,0,.12.01.04-.13.06-.22.06-.27,0-.07-.02-.19-.07-.38-.02-.08-.05-.19-.07-.34l-.21-.16c.02-.18.04-.31.04-.4,0-.04,0-.1-.01-.18v-.17c0-.1.04-.22.12-.35-.08-.1-.12-.2-.12-.3v-.18l-.02-.28c.53-.1.79-.18.79-.25,0,0,0-.02-.02-.04-.12-.11-.27-.16-.45-.16-.13,0-.29,0-.47.02.02-.12.04-.2.04-.24,0-.02-.03-.42-.1-1.2,0-.1-.09-.19-.23-.27ZM113.24,105.45h0c-.02-.29.19-.6.62-.93.1-.07.2-.18.32-.32,0,0,.09-.07.24-.19.3-.44.49-.69.56-.74.12-.09.22-.13.3-.13.03,0,.13.06.28.18.15.11.23.25.23.41,0,.13-.07.24-.22.34-.37.27-.73.56-1.07.87l-.34.22-.42.29c-.23.12-.36.18-.39.18-.07,0-.11-.06-.11-.18Z"/>
    <path class="cls-1" d="M117.97,115.25c0-.53.03-.92.1-1.16.06-.21.18-.53.34-.96.33-.61.52-.96.57-1.04.05-.07.23-.21.56-.42,0,0,.07-.13.18-.36.07-.13.13-.21.18-.23.09-.07.4-.24.93-.5.17-.08.36-.23.58-.46.03-.03.52-.22,1.46-.57.49-.19,1.19-.28,2.12-.28.19,0,.43.03.73.1l.05.25c.11.05.21.11.29.17.12-.04.22-.15.29-.32.44.1.83.26,1.16.49.25.15.39.25.42.29.02.02.1.17.24.42.16.25.44.38.83.39.19.32.32.56.37.72.05.15.1.41.15.78.05.37.09.66.11.87h-.19v.15l-.24.28c.03.14.15.27.34.39-.02.36-.05.6-.07.73-.02.06-.08.2-.18.42-.3.7-.51,1.15-.63,1.35-.43.52-.82.83-1.18.95l-.65.33-.62.29c-.32.18-.51.27-.57.29-.06.01-.45.04-1.18.08l-.85.18h-.86l-.39.05c-.71-.12-1.16-.19-1.33-.19-.11-.13-.2-.21-.25-.23-.02,0-.17-.04-.47-.09-.16-.03-.48-.21-.96-.52-.07-.04-.22-.12-.44-.24-.05-.15-.08-.25-.1-.3-.03-.09-.06-.15-.1-.18,0,0-.09-.06-.25-.17,0,0-.04-.04-.09-.11-.18-.28-.27-.57-.27-.85,0-.14.08-.27.25-.39-.07-.13-.2-.23-.38-.31v-.05ZM119.31,115.01v.12l.11.11c.08-.07.16-.11.24-.12.06.28.12.49.17.63.04.09.25.44.63,1.06,0,.02.01.04.01.07,0,.07-.04.19-.12.35.03.11.14.17.33.18.08-.08.15-.12.21-.12.05,0,.4.17,1.07.51.28.14.57.21.86.21h.72l.36.09c.15.04.29.06.4.06.19,0,.4-.03.63-.08.15-.04.38-.09.67-.15.08-.02.36-.2.82-.52.31-.11.49-.18.53-.22.06-.06.21-.3.46-.72l.3-.61c.2-.19.32-.31.35-.36.03-.06.05-.13.05-.23-.13-.19-.19-.32-.18-.39h0s.05-.25.05-.25c.02-.37.06-.67.15-.91-.07-.15-.14-.4-.23-.73l-.19-.63c-.02-.08-.03-.25-.04-.5l-.05-.05h-.29c-.09-.17-.27-.42-.55-.76-.16-.2-.25-.31-.27-.33-.02-.02-.1-.06-.24-.12-.11-.05-.31-.13-.61-.24-.08-.28-.21-.42-.39-.42-.05,0-.17.04-.38.12-.25-.07-.39-.1-.42-.1-.42,0-.7,0-.83.02-.14,0-.35.1-.63.28l-.26-.18c-.12.16-.21.26-.28.29l-.52.27-.09.1-1.56,1.31c-.02.23-.04.37-.07.42l-.24.42c-.08.23-.18.42-.3.57,0,.07.01.12.01.17,0,.19-.14.34-.42.45,0,.02.03.12.1.28.22.15.33.25.33.3,0,.09-.13.21-.4.35Z"/>
    <path class="cls-1" d="M132.45,110.46c.06-.28.27-.5.62-.65.37-.3.65-.45.82-.45s.3.05.35.15c.02.02.03.26.04.7,0,.11.09.33.28.66.32-.41.51-.61.57-.61l.42-.27c.32-.27.53-.4.62-.4.11,0,.21.09.32.27.44-.32.89-.49,1.32-.49.09,0,.17.01.23.04l.24.07c.31-.11.51-.17.57-.17.09,0,.31.04.68.13.22.05.42.08.61.1.11.14.19.21.24.22l.28.05c.21.03.46.26.74.68.17.27.26.86.27,1.77-.19,0-.39.04-.59.11-.2.07-.3.14-.3.21,0,0,.27.16.81.45.06.03.1.11.1.24,0,.14-.08.38-.23.74,0,.02-.01.04-.01.07,0,.1.09.23.26.39-.02.17-.04.31-.04.44,0,.08.06.29.18.62l.02.67.04.58-.04.51c0,.08.04.23.12.45-.22.16-.37.27-.46.32-.04.02-.22.1-.55.23-.06.03-.24.15-.53.34-.23-.23-.34-.43-.34-.59,0-.06.07-.37.22-.95,0-.04.02-.13.02-.28,0-.07.01-.13.01-.18l.24-.09c.4-.06.61-.11.62-.15l-.13-.09c-.19-.12-.5-.23-.91-.32.05-.35.11-.56.18-.63l.36-.34c.19-.19.29-.36.29-.51,0-.03-.27-.15-.8-.35l.04-.44-.06-.64s.01-.04.04-.1c.03-.08.06-.2.1-.35-.13-.15-.19-.24-.19-.29v-.61c.01-.08-.05-.19-.18-.33-.13-.14-.19-.27-.19-.41l-.06-.07c-.19-.06-.3-.1-.33-.13l-.34-.58c-.07-.11-.14-.16-.22-.16-.14,0-.3.08-.5.24-.3.26-.57.39-.8.39-.04,0-.21-.03-.5-.1l-.23.23v.06c-.17-.4-.34-.61-.51-.61,0,0-.05.02-.13.05-.11.06-.24.1-.38.13-.17.05-.39.16-.65.33-.4.22-.63.38-.69.5-.13.19-.19.38-.19.57l.02.82c0,.15-.03.24-.1.28l-.55.4c-.06.04-.09.08-.09.12,0,.08.07.16.22.24.32.17.51.28.56.33.04.05.06.13.06.23,0,.02,0,.11-.02.24l.02.9s-.07.17-.22.36c-.02.02-.02.07-.02.13,0,.15.08.3.25.46l-.04.04c.02.19.02.32.02.39.03.48.1.84.19,1.1-.08.17-.16.27-.24.3-.03.02-.17.04-.4.07-.04,0-.1.02-.17.06-.1.04-.16.07-.19.07-.06,0-.12.07-.18.17-.07.1-.16.15-.28.15-.05,0-.12-.06-.22-.17-.07-.07-.1-.13-.1-.21,0-.06,0-.14.02-.22.06-.24.08-.38.08-.42v-.92c.09-.23.12-.37.12-.41,0-.08-.02-.18-.05-.29-.04-.16-.06-.27-.06-.33,0-.03,0-.11.02-.24,0-.08.01-.15.01-.21,0-.11,0-.26-.01-.46,0-.1-.01-.19-.01-.29,0-.1.03-.24.08-.4l.34-.16c-.02-.07-.04-.13-.09-.17-.05-.02-.18-.04-.39-.06,0-.15-.01-.28-.01-.38,0-.07.02-.19.05-.36,0-.04.01-.09.01-.15,0-.19-.04-.53-.13-1.03l.28-.16c-.15-.23-.24-.36-.25-.4-.02-.02-.03-.12-.05-.28,0-.13-.1-.31-.29-.53Z"/>
  </g>
  <g>
    <path class="cls-1" d="M114.46,132.02s.08-.1.14-.14c.05-.04.14-.11.27-.21,0-.03-.01-.07-.01-.1,0-.02.01-.04.03-.06.13-.17.26-.35.39-.52.03-.06.12-.14.24-.26l-.48-.12.5-.32-.49-.47.03-.36c.06-.14.09-.24.09-.3v-.18c0-.06.04-.11.11-.14l.06-.03.1.02h.02s.02-.05.02-.06c0-.03-.05-.09-.14-.17v-.16l-.17.04-.05-.05c.03-.09.04-.15.04-.17l-.02-.27.03-.51s-.02-.11-.05-.28c.03-.09.04-.17.05-.25h.08c0-.1.02-.2.07-.3-.13-.02-.19-.06-.19-.11,0-.02,0-.06.02-.12,0-.04.01-.12.01-.24v-.18c0-.06,0-.11,0-.14,0-.04,0-.08-.01-.11-.01-.04-.02-.07-.02-.09,0-.01.01-.04.03-.08h.1l.02-.09-.09-.02v-.04s.02-.1.05-.14l.07-.1s.02-.02.07-.03l.02-.07-.13-.06.04-.16c-.05.03-.1.05-.14.05-.05,0-.08-.04-.08-.12,0,0,0-.09.02-.24l-.03-.47v-.24s0-.1,0-.17v-.08c0-.08.02-.19.05-.33l-.07-.07v-.5s.04-.02.04-.02c0,0,0-.05,0-.14-.05-.1-.08-.16-.08-.2v-.07c-.05-.06-.08-.11-.08-.13v-.22c-.02-.11-.02-.18-.03-.22,0-.05-.03-.11-.09-.18l-.1-.02-.06-.17c.08-.04.14-.07.17-.09.09-.05.19-.07.28-.08l.21-.1.09-.09.07-.03c.2-.08.34-.13.44-.13.08,0,.13.04.13.11v.17l.03.14c-.05.07-.07.13-.07.18,0,.04,0,.1.01.17,0,.07,0,.17.02.31h.02v.04c-.05.02-.09.02-.12.02-.02,0-.06,0-.1-.01l-.02.02c0,.07-.05.13-.13.17l.13.2.14-.02.09.15h.07c-.05.1-.14.21-.27.34l-.07.38-.27.3.08.22.05.76s.08.06.2.12c.11.05.17.09.17.14,0,.02-.02.06-.03.1l-.09.02c.09.08.13.22.13.43,0,.08-.06.15-.18.22.04.08.07.14.09.17.06.11.09.19.09.26,0,0-.02.07-.05.19v.05s0,.05,0,.1c0,.33,0,.54,0,.65v.14c0,.1,0,.21,0,.31,0,.03,0,.07,0,.09,0,.02,0,.04-.02.07v-.02s-.13.09-.13.09c.02.12.07.22.15.3l-.02.06s.03.99.03,1.02c0,.05-.03.2-.09.46l-.02.31-.06.09s0,.04,0,.11c-.02.11-.03.2-.04.26l.13-.02c.04.11.06.17.06.19v.9c-.01.08.03.13.12.16.07.01.12.04.17.09.04,0,.07,0,.1,0s.09.01.18.04l.23.02.38.09h.34l.18.26.48-.23.2.03.16.02.16.05s.07-.01.21-.03c.02,0,.04,0,.06,0,.03,0,.12.02.26.05.18-.03.29-.05.29-.05.05,0,.15,0,.29.02.05,0,.1,0,.14,0,.05,0,.14-.01.26-.04l.28-.02c.18-.03.37-.06.58-.08.09,0,.14-.01.17-.03.05-.02.09-.03.12-.03,0,0,.07.09.16.27h.02c.05,0,.11-.04.16-.14.03-.05.04-.14.04-.26.13-.03.22-.06.26-.08.24-.11.39-.16.44-.16h.03c0,.12-.02.19-.04.22l-.09.12-.2.29c-.08.08-.15.15-.2.21h-.14l-.06.12-.36-.28-.77.28-.05-.02c-.06-.02-.2-.03-.39-.03,0,0-.36.02-.96.06l-.38-.05c-.14.02-.21.03-.21.03-.08,0-.16-.03-.24-.1-.13-.12-.2-.17-.2-.17l-.6.23-.14-.03h-.14s-.14-.03-.14-.03c-.25,0-.41-.02-.47-.02l.06-.04h-.24l-.03.12c-.07-.04-.12-.07-.14-.09-.06-.03-.12-.06-.2-.07-.12.1-.26.16-.42.16-.09,0-.2-.01-.32-.03-.1.07-.2.1-.31.1-.03,0-.1-.01-.2-.04-.16-.03-.29-.06-.4-.09Z"/>
    <path class="cls-1" d="M123.25,132.02s.08-.1.14-.14c.05-.04.14-.11.27-.21,0-.03-.01-.07-.01-.1,0-.02.01-.04.03-.06.13-.17.26-.35.39-.52.03-.06.12-.14.24-.26l-.48-.12.5-.32-.49-.47.02-.2v-.17c.07-.14.1-.24.1-.3v-.18c0-.06.04-.11.11-.14l.06-.03.1.02h.02s.02-.05.02-.06c0-.03-.05-.09-.14-.17v-.16l-.17.04-.05-.05c.03-.09.04-.15.04-.17l-.02-.27.03-.51s-.02-.11-.05-.28c.03-.09.04-.17.05-.25h.08c0-.1.02-.2.07-.3-.13-.02-.19-.06-.19-.11,0-.02,0-.06.02-.12,0-.04.01-.12.01-.24v-.18c0-.06,0-.11,0-.14,0-.04,0-.08-.01-.11-.01-.04-.02-.07-.02-.09,0-.01.01-.04.03-.08h.1l.02-.09-.09-.02v-.04s.02-.1.04-.14l.08-.1s.02-.02.07-.03l.02-.07-.13-.06.05-.16c-.05.03-.1.05-.14.05-.05,0-.08-.04-.08-.12,0,0,0-.09.02-.24l-.03-.47v-.24s0-.1,0-.17v-.08c0-.08.02-.19.05-.33l-.07-.07v-.5s.04-.02.04-.02c0,0,0-.05,0-.14-.05-.1-.08-.16-.08-.2v-.07c-.05-.06-.08-.11-.08-.13v-.22c-.02-.11-.02-.18-.03-.22,0-.05-.03-.11-.09-.18l-.1-.02-.06-.17c.08-.04.14-.07.17-.09.09-.05.19-.07.28-.08l.21-.1.09-.09.07-.03c.2-.08.34-.13.44-.13.08,0,.13.04.13.11v.17l.03.14c-.05.07-.08.13-.08.18,0,.04,0,.1.01.17,0,.07,0,.17.02.31h.02v.04c-.05.02-.09.02-.12.02-.02,0-.06,0-.1-.01l-.02.02c0,.07-.05.13-.13.17l.13.2.14-.02.09.15h.07c-.05.1-.14.21-.27.34l-.07.38-.27.3.08.22.05.76s.08.06.2.12c.11.05.17.09.17.14,0,.02-.02.06-.03.1l-.09.02c.09.08.13.22.13.43,0,.08-.06.15-.18.22.04.08.07.14.09.17.06.11.09.19.09.26,0,0-.02.07-.05.19v.05s0,.05,0,.1c0,.33,0,.54,0,.65v.14c0,.1,0,.21,0,.31,0,.03,0,.07,0,.09,0,.02,0,.04-.02.07v-.02s-.13.09-.13.09c.02.12.07.22.15.3l-.02.06s.03.99.03,1.02c0,.05-.03.2-.09.46l-.02.31-.06.09s0,.04-.01.11c-.02.11-.03.2-.04.26l.13-.02c.04.11.06.17.06.19v.9c0,.08.03.13.12.16.06.01.12.04.17.09.04,0,.07,0,.1,0s.09.01.18.04l.23.02.39.09h.34l.18.26.48-.23.2.03.16.02.16.05s.07-.01.21-.03c.02,0,.04,0,.06,0,.03,0,.12.02.26.05.18-.03.29-.05.29-.05.05,0,.15,0,.29.02.05,0,.1,0,.14,0,.05,0,.14-.01.26-.04l.28-.02c.18-.03.37-.06.58-.08.08,0,.14-.01.17-.03.05-.02.09-.03.12-.03,0,0,.07.09.16.27h.02c.05,0,.11-.04.16-.14.03-.05.04-.14.04-.26.13-.03.22-.06.26-.08.24-.11.39-.16.44-.16h.03c0,.12-.02.19-.04.22l-.09.12-.2.29c-.08.08-.15.15-.2.21h-.14l-.06.12-.36-.28-.77.28-.05-.02c-.07-.02-.2-.03-.39-.03,0,0-.36.02-.96.06l-.38-.05c-.14.02-.21.03-.21.03-.09,0-.16-.03-.24-.1-.13-.12-.2-.17-.2-.17l-.6.23-.14-.03h-.14s-.14-.03-.14-.03c-.25,0-.41-.02-.47-.02l.06-.04h-.24l-.03.12c-.07-.04-.12-.07-.14-.09-.06-.03-.13-.06-.2-.07-.12.1-.26.16-.41.16-.09,0-.2-.01-.32-.03-.1.07-.2.1-.31.1-.03,0-.1-.01-.2-.04-.16-.03-.29-.06-.4-.09Z"/>
    <path class="cls-1" d="M132.07,126.52c-.06-.03-.09-.07-.09-.12,0-.02.02-.12.07-.29.02-.1.06-.29.14-.57l.25-.02s-.03-.12-.08-.22c-.01-.02-.02-.05-.02-.09,0-.05.05-.2.14-.47.03-.16.08-.3.14-.43.05-.08.11-.18.19-.32.05,0,.09.02.1.02.06.02.1.03.1.03.03,0,.06-.02.11-.06.05,0,.08-.02.1-.03.01-.01.03-.05.04-.09l-.14-.02-.06-.21s.06-.12.17-.23c.03-.03.06-.06.09-.11.05-.09.08-.14.1-.16.06-.07.11-.13.14-.21l.04-.04c.07-.1.12-.17.17-.2.02-.02.1-.07.24-.16l.02.02.16-.08v-.13s.76-.59.76-.59c.03-.02.08-.06.17-.1l.16-.1.14-.04c.15-.1.24-.16.25-.16.03,0,.09.02.17.06l.08-.21.24.05.02-.11c.13-.04.21-.07.25-.08.14-.05.28-.09.41-.1l.17-.05c.13-.03.21-.04.22-.05.03-.02.08-.05.14-.1.05,0,.1,0,.14,0,.05,0,.14-.02.29-.07.06-.02.12-.03.19-.03.06,0,.11,0,.17.02.04.01.07.02.08.01l.77-.02c.15,0,.28.08.4.21.09.09.14.14.16.14.07,0,.13-.08.2-.24.12.08.23.12.31.12.03,0,.05,0,.08,0l.16-.03.18.06c.51.13.83.23.98.29v.17c-.06.06-.11.1-.12.12-.14.15-.24.22-.28.22-.04,0-.1-.02-.19-.07-.22-.09-.47-.18-.76-.29l-.08-.19c-.08.02-.13.03-.15.03-.06.02-.11.03-.11.03-.02,0-.14-.04-.37-.12-.07-.03-.11-.05-.13-.08-.02-.03-.04-.05-.05-.08-.13.05-.21.07-.24.07h-.79l-.15-.02c-.17.03-.31.06-.4.1l-.35.04c-.15.03-.27.05-.35.07-.05,0-.12.04-.22.1l-.29.13-.21.15c-.42.17-.7.36-.85.55-.1.03-.21.08-.34.16,0,.05,0,.09-.02.13-.08.04-.18.12-.31.25l-.14.13c-.12.16-.19.25-.22.26-.03.02-.07.03-.1.03-.01,0-.04,0-.07,0,.02.04.03.08.03.08,0,0-.09.17-.28.48-.15.15-.23.25-.25.28,0,.02-.25.59-.25.59l-.05.17c-.11.19-.17.33-.2.42-.01.06-.04.18-.07.34-.06.23-.09.35-.1.37-.01.05-.07.09-.19.12.01.1.06.18.13.25-.04.1-.06.16-.06.2,0,.08.01.19.04.32v.02s0,.06-.04.08l-.46.17s-.05.03-.05.06c0,.02,0,.04.03.06.06.09.09.15.11.2.03.08.06.13.06.13.08.07.17.14.26.21l.1.27c.03.06.04.13.05.21h-.03l.03.2.08.02c.04.07.06.13.06.18h.02c.01.08.02.13.02.15.02.12.04.19.05.22l.1.21c.11.28.16.45.16.5,0,.04-.04.06-.11.06l.06.14c.08,0,.14,0,.18.02.04.01.07.03.11.06.08.09.15.18.22.27l.17.16.13.17c.15.08.26.15.32.2,0,.09.03.16.09.2.07.05.16.1.28.14l.26.16.2.09.18.09.19.08.13.1s.08.05.11.1c.05-.05.11-.08.16-.08,0,0,.23.06.67.18.48,0,.73,0,.75,0s.05.01.09.03c.06.03.12.06.17.06.05-.03.09-.06.1-.07.03-.03.05-.04.07-.04h.07s.04.01.04.01l.47-.06c.07,0,.25-.04.52-.12.14.04.23.06.25.06.06,0,.15-.04.29-.13l.27-.06c.17-.05.27-.1.33-.13l.13.03c.05,0,.21-.03.49-.13.32-.11.49-.17.5-.17.01,0,.04-.04.09-.11l.22-.11c.12-.07.23-.1.33-.1.02,0,.07.01.14.03,0-.1.02-.16.05-.18.02-.02.08-.05.2-.1.12-.07.19-.11.21-.11.03,0,.07.02.12.05-.01.2-.05.36-.12.47-.03.06-.06.13-.08.22-.01.03-.03.06-.07.09-.03.02-.19.05-.48.1-.13.06-.23.09-.27.1-.03,0-.13.03-.31.07l-.25.05-.27.08-.24.03c-.24.07-.38.11-.41.11-.04,0-.1,0-.18,0-.05,0-.13,0-.24,0v.03c0,.07-.05.11-.14.11-.01,0-.03,0-.05,0-.07,0-.11-.01-.11-.01,0,0-.02,0-.06.01l-.71.16c-.15.03-.32.05-.52.06l-.46.02c-.03.05-.08.08-.14.09-.18,0-.33.01-.46.01-.08,0-.21-.03-.39-.1-.04-.02-.09-.02-.14-.02-.05,0-.1.03-.16.1h-.28c-.07-.12-.14-.17-.2-.17h-.02c-.08,0-.15,0-.21,0-.06,0-.1.01-.1.01-.15,0-.33-.06-.55-.18-.16-.09-.35-.18-.55-.27-.32-.2-.53-.32-.63-.37l-.04-.1h.13v-.08c0-.13-.05-.2-.14-.21-.06.07-.11.1-.15.1-.02,0-.09-.05-.2-.14l-.39-.27-.12-.17-.06-.06-.2-.3c-.3-.41-.5-.86-.6-1.37l.12-.07v-.11l-.13-.09c0-.09-.02-.17-.05-.25l-.03-.12c-.04-.06-.07-.11-.07-.13,0-.01,0-.09,0-.22l-.02-.25.03-.12c-.04-.11-.06-.18-.06-.22,0-.09.03-.17.09-.25,0,0,.02-.08.05-.21Z"/>
  </g>
</svg>